<svg id="Layer_1" data-name="Layer 1" xmlns="http://www.w3.org/2000/svg" viewBox="0 0 143.84 143.84"><defs><style>.cls-1{fill:#0c1e30;}.cls-2{fill:#15a59a;}.cls-3{fill:#e78e24;}.cls-4{fill:#38b1e3;}.cls-5{fill:#f2f2f2;}.cls-6{fill:#fff;}.cls-7,.cls-9{fill:none;}.cls-7{stroke:#fff;stroke-miterlimit:10;stroke-width:0.25px;}.cls-8{fill:#343434;}</style></defs><circle class="cls-1" cx="71.92" cy="71.92" r="71.92"/><path class="cls-2" d="M415.35,264.41v19.84a1.35,1.35,0,0,1-.3.84h0l-2.85-2.59-.1-.09a1.72,1.72,0,0,1-.57-1.28V261a.3.3,0,0,1,.5-.22l2.88,2.61A1.33,1.33,0,0,1,415.35,264.41Z" transform="translate(-334.82 -200.88)"/><path class="cls-3" d="M431,264.53v19.55a1.23,1.23,0,0,1-.33.83h0l-3.12-2.55-.1-.09a1.62,1.62,0,0,1-.63-1.26V261.2a.33.33,0,0,1,.55-.21l3.15,2.57A1.27,1.27,0,0,1,431,264.53Z" transform="translate(-334.82 -200.88)"/><path class="cls-3" d="M436.15,264.56H419.27a1.07,1.07,0,0,1-.71-.29h0l2.2-2.78.07-.09a1.39,1.39,0,0,1,1.1-.56H439a.29.29,0,0,1,.19.48L437,264.13A1.08,1.08,0,0,1,436.15,264.56Z" transform="translate(-334.82 -200.88)"/><path class="cls-3" d="M383.48,281.05a4.15,4.15,0,0,1-4.14,4.14,4.07,4.07,0,0,1-.5,0,1.09,1.09,0,0,1-.28-.84c0-.62.07-1.16.07-1.83a1.4,1.4,0,0,0-1.15-1.4v0a1.41,1.41,0,0,0,1.15-1.39c0-.64-.07-1-.07-1.67a1,1,0,0,1,.81-1.07A4.14,4.14,0,0,1,383.48,281.05Z" transform="translate(-334.82 -200.88)"/><path class="cls-4" d="M378.3,285.05h0a4.14,4.14,0,0,1-.06-8l0,0a1.37,1.37,0,0,0-.36,1c0,.66.06,1,.06,1.72a1,1,0,0,1-.23.76h0a1,1,0,0,1-.33.2l-.66.29v.06c.53.2,1.07.27,1.27.84a4.75,4.75,0,0,1,.1,1.55A3.51,3.51,0,0,0,378.3,285.05Z" transform="translate(-334.82 -200.88)"/><circle class="cls-5" cx="45.92" cy="78.21" r="0.46"/><path class="cls-6" d="M378.63,282.49a1.4,1.4,0,0,0-1.15-1.4v0a1.41,1.41,0,0,0,1.15-1.39c0-.64-.07-1-.07-1.67a1,1,0,0,1,.81-1.07h0a4.15,4.15,0,0,0-1.12.15l0,0a1.37,1.37,0,0,0-.36,1c0,.66.06,1,.06,1.72a1,1,0,0,1-.23.76h0a1,1,0,0,1-.33.2l-.66.29v.06c.53.2,1.07.27,1.27.84a4.75,4.75,0,0,1,.1,1.55,3.51,3.51,0,0,0,.26,1.53h0a5,5,0,0,0,.56.11,1.09,1.09,0,0,1-.28-.84C378.56,283.7,378.63,283.16,378.63,282.49Z" transform="translate(-334.82 -200.88)"/><path class="cls-7" d="M378.3,282.9a1.88,1.88,0,0,0,1.76-.23,1.06,1.06,0,0,0,.26-.4" transform="translate(-334.82 -200.88)"/><path class="cls-3" d="M392.8,281.05a4.14,4.14,0,0,1-4.14,4.14,3.91,3.91,0,0,1-.49,0,1.09,1.09,0,0,1-.28-.84c0-.62.07-1.16.07-1.83a1.4,1.4,0,0,0-1.16-1.4v0a1.41,1.41,0,0,0,1.16-1.39c0-.64-.07-1-.07-1.67a.94.94,0,0,1,.8-1.07A4.14,4.14,0,0,1,392.8,281.05Z" transform="translate(-334.82 -200.88)"/><path class="cls-4" d="M387.62,285.05h0a4.14,4.14,0,0,1-.06-8l0,0a1.37,1.37,0,0,0-.37,1c0,.66.06,1,.06,1.72a1,1,0,0,1-.23.76h0a.88.88,0,0,1-.33.2l-.65.29v.06c.52.2,1.07.27,1.26.84a4.49,4.49,0,0,1,.1,1.55A3.66,3.66,0,0,0,387.62,285.05Z" transform="translate(-334.82 -200.88)"/><circle class="cls-5" cx="55.24" cy="78.21" r="0.46"/><path class="cls-6" d="M388,282.49a1.4,1.4,0,0,0-1.16-1.4v0a1.41,1.41,0,0,0,1.16-1.39c0-.64-.07-1-.07-1.67a.94.94,0,0,1,.8-1.07h0a4.07,4.07,0,0,0-1.11.15l0,0a1.37,1.37,0,0,0-.37,1c0,.66.06,1,.06,1.72a1,1,0,0,1-.23.76h0a.88.88,0,0,1-.33.2l-.65.29v.06c.52.2,1.07.27,1.26.84a4.49,4.49,0,0,1,.1,1.55,3.66,3.66,0,0,0,.26,1.53h0a5,5,0,0,0,.56.11,1.09,1.09,0,0,1-.28-.84C387.89,283.7,388,283.16,388,282.49Z" transform="translate(-334.82 -200.88)"/><path class="cls-7" d="M387.62,282.9a1.9,1.9,0,0,0,1.77-.23,1.38,1.38,0,0,0,.26-.4" transform="translate(-334.82 -200.88)"/><path class="cls-3" d="M402.77,281.05a4.14,4.14,0,0,1-4.14,4.14,4.19,4.19,0,0,1-.5,0,1.13,1.13,0,0,1-.28-.84c0-.62.08-1.16.08-1.83a1.41,1.41,0,0,0-1.16-1.4v0a1.42,1.42,0,0,0,1.16-1.39c0-.64-.08-1-.08-1.67a1,1,0,0,1,.81-1.07A4.14,4.14,0,0,1,402.77,281.05Z" transform="translate(-334.82 -200.88)"/><path class="cls-4" d="M397.59,285.05h0a4.14,4.14,0,0,1-.06-8l0,0a1.37,1.37,0,0,0-.37,1c0,.66.06,1,.06,1.72a1,1,0,0,1-.23.76h0a.88.88,0,0,1-.33.2l-.66.29v.06c.53.2,1.08.27,1.27.84a4.49,4.49,0,0,1,.1,1.55A3.51,3.51,0,0,0,397.59,285.05Z" transform="translate(-334.82 -200.88)"/><circle class="cls-5" cx="65.21" cy="78.21" r="0.46"/><path class="cls-6" d="M397.93,282.49a1.41,1.41,0,0,0-1.16-1.4v0a1.42,1.42,0,0,0,1.16-1.39c0-.64-.08-1-.08-1.67a1,1,0,0,1,.81-1.07h0a4,4,0,0,0-1.11.15l0,0a1.37,1.37,0,0,0-.37,1c0,.66.06,1,.06,1.72a1,1,0,0,1-.23.76h0a.88.88,0,0,1-.33.2l-.66.29v.06c.53.2,1.08.27,1.27.84a4.49,4.49,0,0,1,.1,1.55,3.51,3.51,0,0,0,.26,1.53h0a4.86,4.86,0,0,0,.55.11,1.13,1.13,0,0,1-.28-.84C397.85,283.7,397.93,283.16,397.93,282.49Z" transform="translate(-334.82 -200.88)"/><path class="cls-7" d="M397.59,282.9a1.9,1.9,0,0,0,1.77-.23,1.38,1.38,0,0,0,.26-.4" transform="translate(-334.82 -200.88)"/><path class="cls-2" d="M445.94,296.08v6.81l-6.79.53A7.37,7.37,0,0,0,445.94,296.08Z" transform="translate(-334.82 -200.88)"/><path class="cls-8" d="M448,283.68l0,0H448Z" transform="translate(-334.82 -200.88)"/><line class="cls-9" x1="119.92" y1="71.42" x2="118.43" y2="70.47"/><path class="cls-3" d="M445.94,242.7v4.57a4.82,4.82,0,0,0-4.5-4.82Z" transform="translate(-334.82 -200.88)"/><path class="cls-2" d="M453.08,289.21v0c0,.9,0,1.8,0,2.7,0,.06,0,.11,0,.17,0,1,0,2.08,0,3.11a1.09,1.09,0,0,0,0,.69c0,.17,0,.35,0,.52l0,.86c0,.12,0,.23,0,.35,0,.44,0,.89,0,1.33a.3.3,0,0,0-.05.36,1.36,1.36,0,0,0-.07.72c-.13,1-.26,2.07-.38,3.11a3.38,3.38,0,0,0-.11.34c0,.11-.05.23-.07.35l-.05.15c-.12.37-.25.74-.36,1.12s-.31.71-.46,1.07c-2.42,4.07-6.37,5.3-10.71,5.76-1.14.12-2.28.14-3.43.21h0c-.86,0-1.72,0-2.58,0-.42,0-.6-.08-.59-.56v-1c0-2.26,0-4.51,0-6.77l5.09-.4,6.79-.53v-32.8l3,2.12.76.54.24.17.43.31.3.21,1.52,1.07,5.09,3.61C455,279.64,452.74,282.8,453.08,289.21Z" transform="translate(-334.82 -200.88)"/><path class="cls-3" d="M462,272.79l-.06,3.74v0a9,9,0,0,0-4.65,1.55l-6.61-4.68-.3-.21-.43-.31-.24-.17-.76-.54-3-2.12V242.7l-4.5-.25h-.06l-7.33-.41c0-2.58,0-5.18,0-7.76v0c0-.37.11-.49.49-.48.89,0,1.78,0,2.67,0h.2l1.2,0,.86,0,.86.08.35,0,.86.06h.17a1.45,1.45,0,0,0,.87.14l.3,0,.19.05,1.23.26.52.15.33.08,1.92.82.16.12.47.25.79.56.36.29.11.11.63.57,1.59,2.09a19.78,19.78,0,0,1,1.76,8.57c.07,1.8.11,3.6.16,5.4v.34c0,1.2,0,2.4,0,3.6,0,0-1.43,13.62,8.81,12.69v0C462,271,462,271.9,462,272.79Z" transform="translate(-334.82 -200.88)"/><path class="cls-2" d="M457.29,278.11h0c-2.27,1.52-4.53,4.68-4.19,11.09v0L449.66,280l1-6.5h0l1.52,1.07Z" transform="translate(-334.82 -200.88)"/><path class="cls-2" d="M367.53,242.39V247a4.82,4.82,0,0,1,4.5-4.82Z" transform="translate(-334.82 -200.88)"/><path class="cls-2" d="M351.49,272.48l.06,3.74v0a9,9,0,0,1,4.65,1.55l6.61-4.68.3-.21.43-.31.24-.17.76-.54,3-2.12V242.39l4.5-.25h.06l7.33-.41c0-2.58,0-5.18,0-7.76v0c0-.37-.11-.49-.49-.48-.89,0-1.78,0-2.67,0h-.2l-1.2,0-.86,0-.86.08-.35,0-.86.06h-.17a1.45,1.45,0,0,1-.87.14l-.3,0-.19,0-1.23.26-.52.15-.33.08-1.92.82-.16.12-.47.25-.79.56-.36.29a.57.57,0,0,1-.11.11l-.63.57-1.59,2.09a19.78,19.78,0,0,0-1.76,8.57c-.07,1.8-.11,3.6-.16,5.4v.34c0,1.2,0,2.4,0,3.6,0,0,1.43,13.62-8.81,12.69v0C351.52,270.7,351.51,271.59,351.49,272.48Z" transform="translate(-334.82 -200.88)"/><path class="cls-3" d="M367.53,295.77v6.81l6.79.53A7.37,7.37,0,0,1,367.53,295.77Z" transform="translate(-334.82 -200.88)"/><path class="cls-3" d="M360.39,288.9v0c0,.9,0,1.8,0,2.7,0,.06,0,.11,0,.17,0,1,0,2.08,0,3.11a1.09,1.09,0,0,1,0,.69c0,.17,0,.35,0,.52l0,.86c0,.12,0,.23,0,.35,0,.44,0,.89,0,1.33a.3.3,0,0,1,.05.36,1.36,1.36,0,0,1,.07.72c.13,1,.26,2.07.38,3.11a3.38,3.38,0,0,1,.11.34c0,.11,0,.23.07.35l0,.15c.12.37.25.74.36,1.12s.31.71.46,1.07c2.42,4.07,6.37,5.3,10.71,5.76,1.14.12,2.28.14,3.43.21h0c.86,0,1.72,0,2.58,0,.42,0,.6-.08.59-.56v-1c0-2.26,0-4.51,0-6.77l-5.09-.4-6.79-.53v-32.8l-3,2.12-.76.54-.24.17-.43.31-.3.21-1.52,1.07-5.09,3.61C358.47,279.33,360.73,282.49,360.39,288.9Z" transform="translate(-334.82 -200.88)"/><path class="cls-3" d="M356.18,277.8h0c2.27,1.52,4.53,4.68,4.19,11.09v0l3.42-9.29-1-6.5h0l-1.52,1.07Z" transform="translate(-334.82 -200.88)"/></svg>